<?xml version="1.0" standalone="no"?>
<!DOCTYPE svg PUBLIC "-//W3C//DTD SVG 20010904//EN"
 "http://www.w3.org/TR/2001/REC-SVG-20010904/DTD/svg10.dtd">
<svg version="1.0" xmlns="http://www.w3.org/2000/svg"
 width="769.000000pt" height="768.000000pt" viewBox="0 0 769.000000 768.000000"
 preserveAspectRatio="xMidYMid meet">

<g transform="translate(0.000000,768.000000) scale(0.100000,-0.100000)"
fill="#000000" stroke="none">
<path d="M0 3840 l0 -3840 3845 0 3845 0 0 3840 0 3840 -3845 0 -3845 0 0
-3840z m3948 1393 c-15 -2 -42 -2 -60 0 -18 2 -6 4 27 4 33 0 48 -2 33 -4z
m-3918 -1636 c0 -18 5 -23 23 -23 17 1 21 -4 20 -22 -3 -19 1 -23 20 -20 17 2
23 -2 25 -23 3 -22 7 -25 28 -21 22 4 24 2 19 -20 -6 -23 -4 -25 19 -21 23 5
26 2 26 -21 0 -19 5 -26 19 -26 13 0 21 -8 23 -22 2 -17 9 -22 25 -20 19 3 23
-2 23 -22 0 -21 5 -26 26 -26 21 0 24 -4 19 -20 -5 -17 -2 -20 20 -20 24 0 27
-3 23 -25 -4 -20 -1 -24 16 -22 15 1 22 -4 24 -20 3 -17 10 -23 28 -23 21 0
24 -4 19 -20 -5 -17 -2 -20 20 -20 21 0 26 -4 23 -22 -2 -17 3 -24 20 -26 21
-3 26 -12 23 -38 -1 -6 9 -10 21 -10 16 1 23 -5 23 -19 0 -11 7 -21 15 -21 8
-1 21 -2 28 -3 9 -1 11 -8 7 -21 -5 -16 -2 -20 19 -20 19 0 26 -5 26 -20 0
-13 7 -20 20 -20 11 0 21 -4 21 -10 1 -5 2 -16 3 -22 0 -7 8 -13 16 -13 13 0
16 34 21 225 4 156 6 62 6 -305 1 -291 4 -550 7 -575 39 -323 181 -650 396
-915 50 -62 212 -215 282 -268 150 -113 308 -198 473 -257 82 -29 223 -67 285
-77 14 -2 41 -7 60 -10 19 -4 208 -9 420 -13 212 -3 349 -7 305 -9 -44 -2 -68
-6 -52 -8 19 -3 27 -10 27 -24 0 -14 7 -19 26 -19 21 0 25 -4 21 -20 -4 -16 0
-20 19 -20 19 0 24 -5 24 -25 0 -20 5 -25 24 -25 19 0 23 -4 19 -20 -4 -16 0
-20 21 -20 21 0 26 -5 26 -25 0 -17 4 -23 15 -19 10 4 18 -3 25 -20 6 -16 17
-26 30 -26 13 0 20 -7 20 -20 0 -13 7 -20 20 -20 19 0 24 -10 21 -37 -1 -8 10
-13 31 -13 25 0 29 -3 20 -12 -22 -22 -14 -39 15 -32 23 6 25 4 20 -15 -3 -12
0 -21 6 -22 7 -1 19 -2 27 -3 9 0 14 -10 13 -23 -2 -19 2 -23 26 -23 24 0 28
-3 24 -23 -4 -20 -1 -24 19 -23 18 1 23 -4 21 -21 -2 -18 2 -23 22 -23 17 0
23 -4 19 -15 -4 -10 3 -18 20 -25 58 -22 22 -29 -156 -32 -517 -9 -1543 -8
-1634 2 -233 25 -426 82 -679 201 -64 30 -254 148 -324 202 -81 63 -253 229
-325 316 -241 289 -398 656 -446 1041 -6 53 -10 399 -10 923 0 834 0 838 20
832 11 -4 20 -2 20 4 0 6 -9 11 -19 11 -15 0 -19 7 -18 35 1 38 17 49 17 12z
m1240 -1231 c0 -18 6 -25 23 -28 16 -2 21 -9 19 -24 -2 -18 1 -21 23 -16 23 4
26 2 23 -19 -2 -16 2 -24 12 -25 8 -1 21 -2 29 -3 8 -1 11 -8 8 -21 -4 -17 0
-20 24 -20 26 0 28 -2 19 -19 -8 -17 -6 -20 13 -23 14 -2 23 -11 25 -25 3 -17
10 -23 29 -23 20 0 24 -4 20 -19 -3 -15 1 -21 17 -23 13 -2 22 -11 24 -25 2
-15 10 -23 23 -23 12 0 19 -7 19 -20 0 -15 7 -20 26 -20 21 0 25 -4 21 -19 -3
-15 2 -20 25 -25 24 -5 28 -9 19 -19 -14 -17 -4 -27 26 -27 20 0 22 -4 18 -23
-5 -20 -3 -24 17 -23 17 1 23 -5 23 -19 0 -13 8 -21 23 -23 14 -2 22 -10 22
-22 0 -12 8 -20 23 -22 14 -2 23 -11 25 -25 2 -15 10 -23 23 -23 21 0 25 -11
18 -55 -2 -11 1 -20 6 -20 5 0 8 8 7 18 -2 11 3 17 17 17 15 0 20 -6 18 -22
-1 -16 3 -23 18 -23 13 0 20 -7 20 -20 0 -13 8 -21 22 -23 12 -2 24 -13 27
-27 4 -17 11 -22 26 -18 16 4 20 0 20 -21 0 -21 5 -26 24 -26 19 0 23 -4 19
-20 -4 -16 0 -20 21 -20 17 0 26 -5 26 -16 0 -13 -7 -15 -31 -10 -21 4 -29 2
-27 -6 3 -8 21 -11 51 -9 45 2 47 1 47 -23 0 -19 5 -26 19 -26 25 0 38 -20 20
-31 -10 -6 -4 -9 19 -9 27 0 32 -3 32 -25 0 -20 5 -25 25 -25 26 0 27 -10 10
-67 -2 -7 0 -15 5 -18 6 -4 10 6 10 20 0 20 4 26 18 23 9 -2 16 -11 16 -21 -1
-9 3 -18 10 -18 6 -1 16 -2 21 -4 6 -1 14 -3 18 -3 4 -1 3 -11 -3 -22 -10 -18
-8 -20 22 -20 23 0 29 -3 21 -11 -6 -6 -25 -8 -47 -4 -30 6 -36 11 -31 26 5
14 2 17 -9 13 -8 -3 -12 -12 -9 -20 6 -17 -18 -18 -107 -3 -36 6 -72 12 -80
13 -32 5 -181 57 -246 87 -180 82 -390 259 -506 425 -57 81 -138 231 -138 256
0 8 -4 18 -8 24 -26 29 -70 222 -79 345 -5 79 -4 89 11 89 10 0 16 -8 16 -24z"/>
<path d="M66 3512 c-3 -6 -1 -14 5 -17 15 -10 25 3 12 16 -7 7 -13 7 -17 1z"/>
<path d="M107 3464 c-8 -8 1 -24 14 -24 5 0 9 7 9 15 0 15 -12 20 -23 9z"/>
<path d="M156 3422 c-2 -4 -1 -14 5 -22 7 -12 9 -10 9 8 0 23 -5 28 -14 14z"/>
<path d="M200 3371 c0 -5 5 -13 10 -16 6 -3 10 -2 10 4 0 5 -4 13 -10 16 -5 3
-10 2 -10 -4z"/>
<path d="M246 3331 c-4 -5 -2 -12 3 -15 5 -4 12 -2 15 3 4 5 2 12 -3 15 -5 4
-12 2 -15 -3z"/>
<path d="M293 3280 c1 -14 4 -16 14 -8 16 13 16 15 -1 21 -10 4 -14 0 -13 -13z"/>
<path d="M335 3230 c4 -6 11 -8 16 -5 14 9 11 15 -7 15 -8 0 -12 -5 -9 -10z"/>
<path d="M377 3203 c-3 -5 -2 -15 2 -22 7 -10 10 -10 16 -1 4 6 3 16 -3 22 -5
5 -12 6 -15 1z"/>
<path d="M420 3150 c0 -5 5 -10 10 -10 6 0 10 5 10 10 0 6 -4 10 -10 10 -5 0
-10 -4 -10 -10z"/>
<path d="M470 3095 c0 -8 2 -15 4 -15 2 0 6 7 10 15 3 8 1 15 -4 15 -6 0 -10
-7 -10 -15z"/>
<path d="M506 3061 c-3 -5 1 -11 9 -15 8 -3 15 -1 15 4 0 13 -18 22 -24 11z"/>
<path d="M555 3020 c-3 -5 1 -10 10 -10 9 0 13 5 10 10 -3 6 -8 10 -10 10 -2
0 -7 -4 -10 -10z"/>
<path d="M595 2980 c-4 -6 -3 -16 3 -22 6 -6 12 -6 17 2 4 6 3 16 -3 22 -6 6
-12 6 -17 -2z"/>
<path d="M687 2893 c-3 -5 -2 -15 2 -22 7 -10 10 -10 16 -1 4 6 3 16 -3 22 -5
5 -12 6 -15 1z"/>
<path d="M725 2840 c-3 -5 1 -10 9 -10 9 0 16 5 16 10 0 6 -4 10 -9 10 -6 0
-13 -4 -16 -10z"/>
<path d="M2930 636 c0 -2 7 -9 15 -16 12 -10 15 -10 15 4 0 9 -7 16 -15 16 -8
0 -15 -2 -15 -4z"/>
<path d="M2980 591 c0 -6 5 -13 10 -16 6 -3 10 1 10 9 0 9 -4 16 -10 16 -5 0
-10 -4 -10 -9z"/>
<path d="M3020 546 c0 -2 7 -6 15 -10 8 -3 15 -1 15 4 0 6 -7 10 -15 10 -8 0
-15 -2 -15 -4z"/>
<path d="M3076 495 c4 -8 10 -12 15 -9 14 8 10 24 -6 24 -9 0 -12 -6 -9 -15z"/>
<path d="M3116 461 c-4 -5 -2 -12 3 -15 5 -4 12 -2 15 3 4 5 2 12 -3 15 -5 4
-12 2 -15 -3z"/>
<path d="M3160 410 c0 -5 5 -10 10 -10 6 0 10 5 10 10 0 6 -4 10 -10 10 -5 0
-10 -4 -10 -10z"/>
<path d="M3205 371 c-3 -5 -1 -12 5 -16 5 -3 10 1 10 9 0 18 -6 21 -15 7z"/>
<path d="M3246 315 c4 -8 7 -15 9 -15 1 0 8 7 15 15 10 13 9 15 -8 15 -15 0
-20 -5 -16 -15z"/>
<path d="M3296 281 c-4 -5 -2 -12 3 -15 5 -4 12 -2 15 3 4 5 2 12 -3 15 -5 4
-12 2 -15 -3z"/>
<path d="M3336 242 c-3 -6 -1 -14 5 -17 15 -10 25 3 12 16 -7 7 -13 7 -17 1z"/>
<path d="M3380 190 c0 -5 4 -10 9 -10 6 0 13 5 16 10 3 6 -1 10 -9 10 -9 0
-16 -4 -16 -10z"/>
<path d="M3420 140 c0 -5 4 -10 9 -10 6 0 13 5 16 10 3 6 -1 10 -9 10 -9 0
-16 -4 -16 -10z"/>
<path d="M3465 100 c3 -5 10 -10 16 -10 5 0 9 5 9 10 0 6 -7 10 -16 10 -8 0
-12 -4 -9 -10z"/>
<path d="M3516 61 c-4 -5 -2 -12 3 -15 5 -4 12 -2 15 3 4 5 2 12 -3 15 -5 4
-12 2 -15 -3z"/>
<path d="M1260 2310 c0 -5 5 -10 11 -10 5 0 7 5 4 10 -3 6 -8 10 -11 10 -2 0
-4 -4 -4 -10z"/>
<path d="M1310 2264 c0 -8 5 -12 10 -9 6 4 8 11 5 16 -9 14 -15 11 -15 -7z"/>
<path d="M1390 2175 c0 -9 5 -15 11 -13 6 2 11 8 11 13 0 5 -5 11 -11 13 -6 2
-11 -4 -11 -13z"/>
<path d="M1435 2130 c4 -6 11 -8 16 -5 14 9 11 15 -7 15 -8 0 -12 -5 -9 -10z"/>
<path d="M1480 2090 c0 -5 5 -10 10 -10 6 0 10 5 10 10 0 6 -4 10 -10 10 -5 0
-10 -4 -10 -10z"/>
<path d="M1525 2050 c-4 -6 3 -10 14 -10 25 0 27 6 6 13 -8 4 -17 2 -20 -3z"/>
<path d="M1565 2000 c3 -5 10 -10 16 -10 5 0 9 5 9 10 0 6 -7 10 -16 10 -8 0
-12 -4 -9 -10z"/>
<path d="M1655 1921 c-3 -5 -1 -12 5 -16 5 -3 10 1 10 9 0 18 -6 21 -15 7z"/>
<path d="M1704 1879 c-3 -6 -1 -16 5 -22 8 -8 11 -5 11 11 0 24 -5 28 -16 11z"/>
<path d="M1746 1831 c-4 -5 -2 -12 3 -15 5 -4 12 -2 15 3 4 5 2 12 -3 15 -5 4
-12 2 -15 -3z"/>
<path d="M1780 1780 c0 -5 7 -10 15 -10 8 0 15 5 15 10 0 6 -7 10 -15 10 -8 0
-15 -4 -15 -10z"/>
<path d="M1840 1734 c0 -8 5 -12 10 -9 6 4 8 11 5 16 -9 14 -15 11 -15 -7z"/>
<path d="M1875 1690 c4 -6 11 -8 16 -5 14 9 11 15 -7 15 -8 0 -12 -5 -9 -10z"/>
<path d="M1966 1612 c-3 -6 -1 -14 5 -17 15 -10 25 3 12 16 -7 7 -13 7 -17 1z"/>
<path d="M2015 1561 c-3 -5 -1 -12 5 -16 5 -3 10 1 10 9 0 18 -6 21 -15 7z"/>
<path d="M2056 1521 c-4 -5 -2 -12 3 -15 5 -4 12 -2 15 3 4 5 2 12 -3 15 -5 4
-12 2 -15 -3z"/>
<path d="M2105 1470 c-3 -5 -1 -10 4 -10 6 0 11 5 11 10 0 6 -2 10 -4 10 -3 0
-8 -4 -11 -10z"/>
<path d="M2185 1380 c3 -5 10 -10 16 -10 5 0 9 5 9 10 0 6 -7 10 -16 10 -8 0
-12 -4 -9 -10z"/>
<path d="M2230 1341 c0 -5 5 -13 10 -16 6 -3 10 -2 10 4 0 5 -4 13 -10 16 -5
3 -10 2 -10 -4z"/>
<path d="M2276 1301 c-4 -5 -2 -12 3 -15 5 -4 12 -2 15 3 4 5 2 12 -3 15 -5 4
-12 2 -15 -3z"/>
<path d="M2310 1256 c0 -9 30 -14 35 -6 4 6 -3 10 -14 10 -12 0 -21 -2 -21 -4z"/>
</g>
</svg>
